<mxfile host="app.diagrams.net" agent="Mozilla/5.0 (Windows NT 10.0; Win64; x64) AppleWebKit/537.36 (KHTML, like Gecko) Chrome/135.0.0.0 Safari/537.36 Edg/135.0.0.0" version="26.2.13">
  <diagram name="Page-1" id="RjZ4Prxl7FdGrBk4clQj">
    <mxGraphModel dx="863" dy="515" grid="0" gridSize="10" guides="1" tooltips="1" connect="1" arrows="1" fold="1" page="1" pageScale="1" pageWidth="850" pageHeight="1100" background="light-dark(#FFFFFF,#FFFFFF)" math="0" shadow="0">
      <root>
        <mxCell id="0" />
        <mxCell id="1" parent="0" />
        <mxCell id="LhS7VMMKGw6rGxjzMtjc-1" value="NGUOI_DANG" style="swimlane;whiteSpace=wrap;html=1;labelBackgroundColor=none;fillColor=#5D7F99;strokeColor=#D0CEE2;fontColor=#1A1A1A;" vertex="1" parent="1">
          <mxGeometry x="70" y="70" width="160" height="180" as="geometry" />
        </mxCell>
        <mxCell id="LhS7VMMKGw6rGxjzMtjc-2" value="&lt;u&gt;ID_NGUOI_DANG&lt;/u&gt;" style="text;html=1;align=center;verticalAlign=middle;whiteSpace=wrap;rounded=0;labelBackgroundColor=none;fontColor=light-dark(#1A1A1A,#000000);" vertex="1" parent="LhS7VMMKGw6rGxjzMtjc-1">
          <mxGeometry y="30" width="160" height="30" as="geometry" />
        </mxCell>
        <mxCell id="LhS7VMMKGw6rGxjzMtjc-3" value="TEN_NGUOI_DANG" style="text;html=1;align=center;verticalAlign=middle;whiteSpace=wrap;rounded=0;labelBackgroundColor=none;fontColor=light-dark(#1A1A1A,#000000);" vertex="1" parent="LhS7VMMKGw6rGxjzMtjc-1">
          <mxGeometry y="60" width="160" height="30" as="geometry" />
        </mxCell>
        <mxCell id="LhS7VMMKGw6rGxjzMtjc-4" value="EMAIL" style="text;html=1;align=center;verticalAlign=middle;whiteSpace=wrap;rounded=0;labelBackgroundColor=none;fontColor=light-dark(#1A1A1A,#000000);" vertex="1" parent="LhS7VMMKGw6rGxjzMtjc-1">
          <mxGeometry y="90" width="160" height="30" as="geometry" />
        </mxCell>
        <mxCell id="LhS7VMMKGw6rGxjzMtjc-5" value="MAT_KHAU" style="text;html=1;align=center;verticalAlign=middle;whiteSpace=wrap;rounded=0;labelBackgroundColor=none;fontColor=light-dark(#1A1A1A,#000000);" vertex="1" parent="LhS7VMMKGw6rGxjzMtjc-1">
          <mxGeometry y="120" width="160" height="30" as="geometry" />
        </mxCell>
        <mxCell id="LhS7VMMKGw6rGxjzMtjc-6" value="NGAY_DANG_KI" style="text;html=1;align=center;verticalAlign=middle;whiteSpace=wrap;rounded=0;labelBackgroundColor=none;fontColor=light-dark(#1A1A1A,#000000);" vertex="1" parent="LhS7VMMKGw6rGxjzMtjc-1">
          <mxGeometry y="150" width="160" height="30" as="geometry" />
        </mxCell>
        <mxCell id="LhS7VMMKGw6rGxjzMtjc-8" value="TRUYEN" style="swimlane;whiteSpace=wrap;html=1;labelBackgroundColor=none;fillColor=#5D7F99;strokeColor=#D0CEE2;fontColor=#1A1A1A;" vertex="1" parent="1">
          <mxGeometry x="340" y="70" width="140" height="180" as="geometry" />
        </mxCell>
        <mxCell id="LhS7VMMKGw6rGxjzMtjc-9" value="&lt;u&gt;ID_TRUYEN&lt;/u&gt;" style="text;html=1;align=center;verticalAlign=middle;whiteSpace=wrap;rounded=0;labelBackgroundColor=none;fontColor=light-dark(#1A1A1A,#000000);" vertex="1" parent="LhS7VMMKGw6rGxjzMtjc-8">
          <mxGeometry y="30" width="140" height="30" as="geometry" />
        </mxCell>
        <mxCell id="LhS7VMMKGw6rGxjzMtjc-11" value="TEN_TRUYEN" style="text;html=1;align=center;verticalAlign=middle;whiteSpace=wrap;rounded=0;labelBackgroundColor=none;fontColor=light-dark(#1A1A1A,#000000);" vertex="1" parent="LhS7VMMKGw6rGxjzMtjc-8">
          <mxGeometry y="60" width="140" height="30" as="geometry" />
        </mxCell>
        <mxCell id="LhS7VMMKGw6rGxjzMtjc-12" value="NGAY_DANG" style="text;html=1;align=center;verticalAlign=middle;whiteSpace=wrap;rounded=0;labelBackgroundColor=none;fontColor=light-dark(#1A1A1A,#000000);" vertex="1" parent="LhS7VMMKGw6rGxjzMtjc-8">
          <mxGeometry y="90" width="140" height="30" as="geometry" />
        </mxCell>
        <mxCell id="LhS7VMMKGw6rGxjzMtjc-13" value="THE_LOAI" style="text;html=1;align=center;verticalAlign=middle;whiteSpace=wrap;rounded=0;labelBackgroundColor=none;fontColor=light-dark(#1A1A1A,#000000);" vertex="1" parent="LhS7VMMKGw6rGxjzMtjc-8">
          <mxGeometry y="120" width="140" height="30" as="geometry" />
        </mxCell>
        <mxCell id="LhS7VMMKGw6rGxjzMtjc-14" value="ID_NGUOI_DANG" style="text;html=1;align=center;verticalAlign=middle;whiteSpace=wrap;rounded=0;labelBackgroundColor=none;fontColor=light-dark(#1A1A1A,#000000);" vertex="1" parent="LhS7VMMKGw6rGxjzMtjc-8">
          <mxGeometry y="150" width="140" height="30" as="geometry" />
        </mxCell>
        <mxCell id="LhS7VMMKGw6rGxjzMtjc-16" value="" style="endArrow=classic;html=1;rounded=0;entryX=0;entryY=0.5;entryDx=0;entryDy=0;labelBackgroundColor=none;strokeColor=light-dark(#736CA8,#000000);fontColor=default;" edge="1" parent="1" target="LhS7VMMKGw6rGxjzMtjc-14">
          <mxGeometry width="50" height="50" relative="1" as="geometry">
            <mxPoint x="230" y="120" as="sourcePoint" />
            <mxPoint x="280" y="310" as="targetPoint" />
            <Array as="points">
              <mxPoint x="280" y="120" />
              <mxPoint x="280" y="235" />
            </Array>
          </mxGeometry>
        </mxCell>
        <mxCell id="LhS7VMMKGw6rGxjzMtjc-17" value="CHAPTER" style="swimlane;whiteSpace=wrap;html=1;labelBackgroundColor=none;fillColor=#5D7F99;strokeColor=#D0CEE2;fontColor=#1A1A1A;" vertex="1" parent="1">
          <mxGeometry x="580" y="70" width="140" height="150" as="geometry" />
        </mxCell>
        <mxCell id="LhS7VMMKGw6rGxjzMtjc-18" value="ID_CHAPTER" style="text;html=1;align=center;verticalAlign=middle;whiteSpace=wrap;rounded=0;fontStyle=4;labelBackgroundColor=none;fontColor=light-dark(#1A1A1A,#000000);" vertex="1" parent="LhS7VMMKGw6rGxjzMtjc-17">
          <mxGeometry y="30" width="140" height="30" as="geometry" />
        </mxCell>
        <mxCell id="LhS7VMMKGw6rGxjzMtjc-19" value="NGAY_UPDATE" style="text;html=1;align=center;verticalAlign=middle;whiteSpace=wrap;rounded=0;labelBackgroundColor=none;fontColor=light-dark(#1A1A1A,#000000);" vertex="1" parent="LhS7VMMKGw6rGxjzMtjc-17">
          <mxGeometry y="60" width="140" height="30" as="geometry" />
        </mxCell>
        <mxCell id="LhS7VMMKGw6rGxjzMtjc-20" value="TEN_CHAPTER" style="text;html=1;align=center;verticalAlign=middle;whiteSpace=wrap;rounded=0;labelBackgroundColor=none;fontColor=light-dark(#1A1A1A,#000000);" vertex="1" parent="LhS7VMMKGw6rGxjzMtjc-17">
          <mxGeometry y="90" width="140" height="30" as="geometry" />
        </mxCell>
        <mxCell id="LhS7VMMKGw6rGxjzMtjc-21" value="ID_TRUYEN" style="text;html=1;align=center;verticalAlign=middle;whiteSpace=wrap;rounded=0;labelBackgroundColor=none;fontColor=light-dark(#1A1A1A,#000000);" vertex="1" parent="LhS7VMMKGw6rGxjzMtjc-17">
          <mxGeometry y="120" width="140" height="30" as="geometry" />
        </mxCell>
        <mxCell id="LhS7VMMKGw6rGxjzMtjc-23" value="" style="endArrow=classic;html=1;rounded=0;entryX=0;entryY=0.658;entryDx=0;entryDy=0;entryPerimeter=0;labelBackgroundColor=none;strokeColor=light-dark(#736CA8,#000000);fontColor=default;" edge="1" parent="1" target="LhS7VMMKGw6rGxjzMtjc-21">
          <mxGeometry width="50" height="50" relative="1" as="geometry">
            <mxPoint x="480" y="120" as="sourcePoint" />
            <mxPoint x="530" y="70" as="targetPoint" />
            <Array as="points">
              <mxPoint x="530" y="120" />
              <mxPoint x="530" y="210" />
            </Array>
          </mxGeometry>
        </mxCell>
        <mxCell id="LhS7VMMKGw6rGxjzMtjc-24" value="CHAPTER_REVIEW" style="swimlane;whiteSpace=wrap;html=1;labelBackgroundColor=none;fillColor=#5D7F99;strokeColor=#D0CEE2;fontColor=#1A1A1A;" vertex="1" parent="1">
          <mxGeometry x="580" y="320" width="140" height="150" as="geometry" />
        </mxCell>
        <mxCell id="LhS7VMMKGw6rGxjzMtjc-25" value="ID_QUAN_LY" style="text;html=1;align=center;verticalAlign=middle;whiteSpace=wrap;rounded=0;fontStyle=4;labelBackgroundColor=none;fontColor=light-dark(#1A1A1A,#000000);" vertex="1" parent="LhS7VMMKGw6rGxjzMtjc-24">
          <mxGeometry y="30" width="140" height="30" as="geometry" />
        </mxCell>
        <mxCell id="LhS7VMMKGw6rGxjzMtjc-26" value="TEN_QUAN_LY" style="text;html=1;align=center;verticalAlign=middle;whiteSpace=wrap;rounded=0;labelBackgroundColor=none;fontColor=light-dark(#1A1A1A,#000000);" vertex="1" parent="LhS7VMMKGw6rGxjzMtjc-24">
          <mxGeometry y="60" width="140" height="30" as="geometry" />
        </mxCell>
        <mxCell id="LhS7VMMKGw6rGxjzMtjc-27" value="ID_CHAPTER" style="text;html=1;align=center;verticalAlign=middle;whiteSpace=wrap;rounded=0;labelBackgroundColor=none;fontColor=light-dark(#1A1A1A,#000000);" vertex="1" parent="LhS7VMMKGw6rGxjzMtjc-24">
          <mxGeometry y="90" width="140" height="30" as="geometry" />
        </mxCell>
        <mxCell id="LhS7VMMKGw6rGxjzMtjc-28" value="TRANG_THAI" style="text;html=1;align=center;verticalAlign=middle;whiteSpace=wrap;rounded=0;labelBackgroundColor=none;fontColor=light-dark(#1A1A1A,#000000);" vertex="1" parent="LhS7VMMKGw6rGxjzMtjc-24">
          <mxGeometry y="120" width="140" height="30" as="geometry" />
        </mxCell>
        <mxCell id="LhS7VMMKGw6rGxjzMtjc-30" value="" style="endArrow=classic;html=1;rounded=0;entryX=1.001;entryY=0.669;entryDx=0;entryDy=0;entryPerimeter=0;labelBackgroundColor=none;strokeColor=light-dark(#736CA8,#000000);fontColor=default;" edge="1" parent="1" target="LhS7VMMKGw6rGxjzMtjc-27">
          <mxGeometry width="50" height="50" relative="1" as="geometry">
            <mxPoint x="720" y="120" as="sourcePoint" />
            <mxPoint x="770" y="70" as="targetPoint" />
            <Array as="points">
              <mxPoint x="770" y="120" />
              <mxPoint x="770" y="430" />
            </Array>
          </mxGeometry>
        </mxCell>
        <mxCell id="LhS7VMMKGw6rGxjzMtjc-31" value="QUAN_LY" style="swimlane;whiteSpace=wrap;html=1;labelBackgroundColor=none;fillColor=#5D7F99;strokeColor=#D0CEE2;fontColor=#1A1A1A;" vertex="1" parent="1">
          <mxGeometry x="340" y="320" width="140" height="120" as="geometry" />
        </mxCell>
        <mxCell id="LhS7VMMKGw6rGxjzMtjc-32" value="ID_QUAN_LY" style="text;html=1;align=center;verticalAlign=middle;whiteSpace=wrap;rounded=0;labelBackgroundColor=none;fontColor=light-dark(#1A1A1A,#000000);" vertex="1" parent="LhS7VMMKGw6rGxjzMtjc-31">
          <mxGeometry y="30" width="140" height="30" as="geometry" />
        </mxCell>
        <mxCell id="LhS7VMMKGw6rGxjzMtjc-33" value="TEN_QUAN_LY" style="text;html=1;align=center;verticalAlign=middle;whiteSpace=wrap;rounded=0;labelBackgroundColor=none;fontColor=light-dark(#1A1A1A,#000000);" vertex="1" parent="LhS7VMMKGw6rGxjzMtjc-31">
          <mxGeometry y="60" width="140" height="30" as="geometry" />
        </mxCell>
        <mxCell id="LhS7VMMKGw6rGxjzMtjc-34" value="EMAIL" style="text;html=1;align=center;verticalAlign=middle;whiteSpace=wrap;rounded=0;labelBackgroundColor=none;fontColor=light-dark(#1A1A1A,#000000);" vertex="1" parent="LhS7VMMKGw6rGxjzMtjc-31">
          <mxGeometry y="90" width="140" height="30" as="geometry" />
        </mxCell>
        <mxCell id="LhS7VMMKGw6rGxjzMtjc-36" value="" style="endArrow=classic;html=1;rounded=0;entryX=0.001;entryY=0.669;entryDx=0;entryDy=0;entryPerimeter=0;labelBackgroundColor=none;strokeColor=light-dark(#736CA8,#000000);fontColor=default;" edge="1" parent="1" target="LhS7VMMKGw6rGxjzMtjc-25">
          <mxGeometry width="50" height="50" relative="1" as="geometry">
            <mxPoint x="480" y="370" as="sourcePoint" />
            <mxPoint x="530" y="320" as="targetPoint" />
          </mxGeometry>
        </mxCell>
      </root>
    </mxGraphModel>
  </diagram>
</mxfile>
